<?xml version="1.0" standalone="no"?><!DOCTYPE svg PUBLIC "-//W3C//DTD SVG 1.1//EN" "http://www.w3.org/Graphics/SVG/1.1/DTD/svg11.dtd"><svg t="1605680386412" class="icon" viewBox="0 0 1032 1024" version="1.1" xmlns="http://www.w3.org/2000/svg" p-id="36889" xmlns:xlink="http://www.w3.org/1999/xlink" width="201.5625" height="200"><defs><style type="text/css"></style></defs><path d="M446.09536 922.60864l-32.05632-24.77056-260.91008 0.08192c-11.24864 0-23.82848-1.38752-31.86688-11.6992-4.12672-5.28896-6.90688-21.95968-6.82496-33.55136l0.00512-0.15872-0.0512-747.264c0.24576-2.59072 2.304-20.10624 12.4672-30.26432 14.45888-14.464 25.24672-16.75264 27.22816-17.06496h403.23072v107.97568c-0.08704 5.59104 0.24576 42.31168 21.28384 66.36544 19.31776 22.08768 49.9712 33.66912 53.40672 34.9184l4.35712 1.5872 142.79168 0.13312v128.77824l45.08672 34.83648a334.08 334.08 0 0 1 7.71584 8.03328V208.56832L601.43104 5.12H153.12896c-5.19168 0-32.65024 1.56672-63.60576 32.52736-25.35424 25.35424-27.71968 61.46048-27.904 65.49504l-0.03072 0.60928 0.05632 748.45184c-0.08192 7.59808 0.50688 44.06784 17.97632 66.47808 10.84416 13.91104 25.3184 23.4496 43.02848 28.34944 13.33248 3.69152 24.91392 3.69152 30.48448 3.69152l355.91168-0.10752a317.14816 317.14816 0 0 1-62.9504-28.0064M610.11456 83.2l150.55872 132.87936-114.47808-0.10752c-7.5776-3.328-20.55168-10.13248-27.84256-18.47296-5.74976-6.5792-8.30976-22.27712-8.23296-30.88384V83.2z" p-id="36890" fill="#8a8a8a"></path><path d="M958.1312 947.33824l-129.84832-129.82784a275.21024 275.21024 0 0 0 53.74464-163.69152c0-152.54528-124.12928-276.66944-276.69504-276.66944-152.56064 0-276.6848 124.11904-276.6848 276.66944 0 152.57088 124.12416 276.68992 276.6848 276.68992 61.19424 0 117.8112-19.968 163.68128-53.7344l129.8432 129.82784c8.18688 8.17664 18.89792 12.27264 29.62944 12.27264s21.4528-4.10112 29.6448-12.27264a41.9072 41.9072 0 0 0 0-59.264M396.75392 653.81888c0-115.00544 93.568-208.57344 208.57344-208.57344 115.01056 0 208.58368 93.568 208.58368 208.57344 0 115.01056-93.57312 208.57856-208.58368 208.57856-115.00032 0.00512-208.57344-93.568-208.57344-208.57856" p-id="36891" fill="#8a8a8a"></path></svg>