<?xml version="1.0" standalone="no"?><!DOCTYPE svg PUBLIC "-//W3C//DTD SVG 1.1//EN" "http://www.w3.org/Graphics/SVG/1.1/DTD/svg11.dtd"><svg t="1605415791859" class="icon" viewBox="0 0 1024 1024" version="1.1" xmlns="http://www.w3.org/2000/svg" p-id="1324" xmlns:xlink="http://www.w3.org/1999/xlink" width="200" height="200"><defs><style type="text/css"></style></defs><path d="M112 94.4h299.2a43.712 43.712 0 0 1 43.2 43.2v296a43.712 43.712 0 0 1-43.2 43.2H112a43.712 43.712 0 0 1-43.2-43.2V137.6A43.712 43.712 0 0 1 112 94.4z m296 48H116.8v286.4h289.6V142.4zM112 547.2h299.2a43.712 43.712 0 0 1 43.2 43.2v296a43.712 43.712 0 0 1-43.2 43.2H112a43.712 43.712 0 0 1-43.2-43.2V590.4c0-12.8 4.8-22.4 12.8-30.4s19.2-12.8 30.4-12.8z m296 48H116.8v286.4h289.6V595.2zM577.6 185.6c-12.8 0-24-11.2-24-24s11.2-24 24-24h353.6c12.8 0 24 11.2 24 24s-11.2 24-24 24H577.6zM577.6 414.4c-12.8 0-24-11.2-24-24s11.2-24 24-24h353.6c12.8 0 24 11.2 24 24s-11.2 24-24 24H577.6zM577.6 644.8c-12.8 0-24-11.2-24-24s11.2-24 24-24h353.6c12.8 0 24 11.2 24 24s-11.2 24-24 24H577.6zM577.6 875.2c-12.8 0-24-11.2-24-24s11.2-24 24-24h353.6c12.8 0 24 11.2 24 24s-11.2 24-24 24H577.6z" p-id="1325" fill="#ffffff"></path></svg>