<?xml version="1.0" encoding="UTF-8"?>
<svg width="464px" height="285px" viewBox="0 0 464 285" version="1.1" xmlns="http://www.w3.org/2000/svg" xmlns:xlink="http://www.w3.org/1999/xlink">
    <!-- Generator: Sketch 53.2 (72643) - https://sketchapp.com -->
    <title>在家办公2</title>
    <desc>Created with Sketch.</desc>
    <defs>
        <polygon id="path-1" points="0 0.546554779 30.1598258 0.546554779 25.6358519 38.9535062 4.52397387 38.9535062"></polygon>
    </defs>
    <g id="页面-1" stroke="none" stroke-width="1" fill="none" fill-rule="evenodd">
        <g id="在家办公2">
            <path d="M156.5,105.027994 L385.5,128.446261 L385.5,0.5 L156.5,0.5 L156.5,105.027994 Z" id="路径" stroke="#13161A" transform="translate(271.000000, 64.500000) scale(-1, 1) translate(-271.000000, -64.500000) "></path>
            <g id="分组-16" transform="translate(183.000000, 27.000000)">
                <rect id="矩形-copy-17" fill="#FFC82C" x="0" y="2.30977334" width="23.909156" height="24.6375823"></rect>
                <rect id="矩形-copy-18" stroke="#13161A" x="3.4886445" y="0.5" width="22.909156" height="23.6375823"></rect>
            </g>
            <g id="分组-21" transform="translate(158.000000, 1.000000)">
                <rect id="矩形" fill="#0092FF" x="0" y="0" width="227.359143" height="14.8994638"></rect>
                <g id="分组-17" transform="translate(3.776730, 4.705094)">
                    <ellipse id="椭圆形" fill="#FFC82C" cx="10.5748438" cy="2.35254692" rx="2.26603797" ry="2.35254692"></ellipse>
                    <ellipse id="椭圆形-copy-9" fill="#13CE66" cx="18.8836497" cy="2.35254692" rx="2.26603797" ry="2.35254692"></ellipse>
                    <ellipse id="椭圆形-copy-10" fill="#FF3B30" cx="2.26603797" cy="2.35254692" rx="2.26603797" ry="2.35254692"></ellipse>
                </g>
            </g>
            <g id="分组-14-copy" transform="translate(257.257394, 78.344884) scale(-1, 1) rotate(9.000000) translate(-257.257394, -78.344884) translate(235.757394, 51.844884)">
                <g id="物理元素/生活道具/纸飞机" transform="translate(31.926492, 8.759896) scale(-1, 1) rotate(1.000000) translate(-31.926492, -8.759896) translate(21.426492, 0.759896)" fill="#0092FF">
                    <g id="发送" transform="translate(10.055913, 7.921989) scale(-1, 1) translate(-10.055913, -7.921989) translate(0.055913, 0.421989)">
                        <path d="M0,7.87983467 L5.35167562,10.3783188 L16.4199138,2.40238861 L7.29773948,10.5705099 L14.595479,12.4924208 L19.4606386,0 L0,7.87983467 Z M7.29773948,14.7987138 L9.73031934,12.4924208 L7.29773948,11.5314653 L7.29773948,14.7987138 Z" id="形状"></path>
                    </g>
                </g>
                <path d="M29.7475476,19.6816736 C17.0084958,20.9283514 26.2950924,36.5644881 21.3301619,45.0681545 C17.9426159,50.8701612 6.30176426,49.5616197 3.36805608,49.7966424" id="路径-79" stroke="#13161A" transform="translate(16.557802, 34.739158) rotate(-13.000000) translate(-16.557802, -34.739158) "></path>
            </g>
            <g id="分组-15" transform="translate(0.000000, 72.000000)">
                <g id="分组-8" transform="translate(85.747841, 64.822592)">
                    <rect id="矩形" fill="#5FBBFF" x="40.5819527" y="0" width="131.426598" height="67.223429" rx="8"></rect>
                    <rect id="矩形-copy-5" fill="#5FBBFF" x="171.207169" y="0" width="131.426598" height="67.223429" rx="8"></rect>
                    <polygon id="矩形" fill="#FFC82C" points="25.3557006 118.44128 40.5819527 118.44128 32.9688266 146.451042 25.3557006 146.451042"></polygon>
                    <polygon id="矩形-copy-7" fill="#FFC82C" transform="translate(313.452419, 132.446161) scale(-1, 1) translate(-313.452419, -132.446161) " points="305.839293 118.44128 321.065545 118.44128 313.452419 146.451042 305.839293 146.451042"></polygon>
                    <path d="M32.8585846,26.4092043 L41.8721307,26.4092043 C44.6375315,26.4092043 47.2068272,27.8374119 48.6666468,30.186107 L75.1688729,72.8253815 L60.4784368,107.437691 C58.7522391,111.504806 54.0558315,113.402494 49.9887168,111.676296 C49.0253142,111.267401 48.1515052,110.673444 47.4168093,109.928084 L2.94585846,64.8116414 C-0.114458414,61.7069043 -0.125550749,56.7234903 2.92091451,53.6051605 L27.1361757,28.8186733 C28.6414718,27.277868 30.7045193,26.4092043 32.8585846,26.4092043 Z" id="矩形" fill="#35A9FF"></path>
                    <path d="M304.544715,26.4092043 L313.558261,26.4092043 C316.323662,26.4092043 318.892958,27.8374119 320.352777,30.186107 L346.855003,72.8253815 L325.327907,108.865492 C323.06223,112.658629 318.150591,113.896881 314.357454,111.631204 C313.608548,111.183876 312.937847,110.617072 312.371909,109.953236 L273.858596,64.7777825 C271.175118,61.63011 271.333595,56.9558295 274.224102,53.9971369 L298.822306,28.8186733 C300.327602,27.277868 302.39065,26.4092043 304.544715,26.4092043 Z" id="矩形-copy-10" fill="#35A9FF" transform="translate(309.117442, 70.148750) scale(-1, 1) translate(-309.117442, -70.148750) "></path>
                    <rect id="矩形" fill="#0087ED" x="25.3557006" y="111.238769" width="288.497409" height="21.6075308" rx="8"></rect>
                    <path d="M24.5405019,50.4175718 L33.5970665,50.4175718 C37.5983906,50.4175718 40.9843341,53.3738756 41.5239772,57.3386429 L50.5655668,123.767371 C51.1614427,128.145283 48.0954969,132.177335 43.717585,132.773211 C43.3600022,132.821881 42.999536,132.8463 42.6386561,132.8463 L24.5405019,132.8463 C20.1222239,132.8463 16.5405019,129.264578 16.5405019,124.8463 L16.5405019,58.4175718 C16.5405019,53.9992938 20.1222239,50.4175718 24.5405019,50.4175718 Z" id="矩形" fill="#0087ED"></path>
                    <path d="M316.898743,50.4175718 L328.286803,50.4175718 C331.822657,50.4175718 334.689034,53.2839484 334.689034,56.8198031 L334.689034,56.8198031 L334.689034,124.8463 C334.689034,129.264578 331.107312,132.8463 326.689034,132.8463 L308.502982,132.8463 C304.084704,132.8463 300.502982,129.264578 300.502982,124.8463 C300.502982,124.510934 300.52407,124.1759 300.566121,123.84318 L308.961883,57.4144518 C309.467258,53.4158387 312.86832,50.4175718 316.898743,50.4175718 Z" id="矩形-copy-3" fill="#0087ED"></path>
                    <rect id="矩形" fill="#0087ED" x="0.512868097" y="50.4175718" width="40.0690846" height="24.0083675" rx="8"></rect>
                    <rect id="矩形-copy-4" fill="#0087ED" x="309.04482" y="50.4175718" width="40.0690846" height="24.0083675" rx="8"></rect>
                    <path d="" id="路径-106" stroke="#979797"></path>
                    <path d="M80.6642003,63.2220345 L276.856616,63.2220345 C279.885204,63.2220345 282.654142,64.9322781 284.010061,67.6403833 L300.040488,99.6571183 C302.018579,103.607857 300.419432,108.414123 296.468694,110.392214 C295.356825,110.948915 294.130493,111.238769 292.887043,111.238769 L57.9627209,111.238769 C53.5444429,111.238769 49.9627209,107.657047 49.9627209,103.238769 C49.9627209,101.580878 50.4777974,99.9639375 51.4367331,98.6115151 L74.1382125,66.5947801 C75.6382653,64.4792002 78.0707785,63.2220345 80.6642003,63.2220345 Z" id="矩形-copy-8" fill="#35A9FF"></path>
                    <path d="M172.142164,4.8016735 L172.142164,47.2164561" id="路径-114" stroke="#313B40"></path>
                    <path d="M66.6509584,58.3705559 C81.9225139,55.7361629 98.3428051,54.4189664 115.911832,54.4189664 C132.845519,54.4189664 149.212205,55.6426192 165.01189,58.0899249 L165.01189,58.0899272 C168.910853,58.6938604 171.787324,62.050188 171.787324,65.9956471 L171.787324,99.2373749 C171.787324,103.655653 168.205602,107.237375 163.787324,107.237375 L56.4502067,107.237375 C52.0319287,107.237375 48.4502067,103.655653 48.4502067,99.2373749 C48.4502067,98.3362487 48.6024544,97.4415988 48.900522,96.5911965 L60.4612135,63.6079406 C61.4214176,60.8684284 63.7902937,58.8640299 66.6509584,58.3705559 Z" id="矩形" fill="#9AD3FE"></path>
                    <path d="M193.200656,58.4421647 C208.986192,55.7600325 225.429295,54.4189664 242.529966,54.4189664 C258.945569,54.4189664 275.374212,55.6547361 291.815896,58.1262756 L291.815896,58.1262757 C295.730927,58.7147893 298.626684,62.0783756 298.626684,66.0373928 L298.626684,99.2373749 C298.626684,103.655653 295.044962,107.237375 290.626684,107.237375 L180.809428,107.237375 C176.39115,107.237375 172.809428,103.655653 172.809428,99.2373749 C172.809428,98.1798048 173.019118,97.13273 173.42637,96.1567172 L187.157677,63.2484701 C188.21438,60.7159915 190.495332,58.9018283 193.200656,58.4421647 Z" id="矩形-copy-6" fill="#9AD3FE" transform="translate(235.317617, 80.828171) scale(-1, 1) translate(-235.317617, -80.828171) "></path>
                    <path d="M63.0206401,91.631936 L282.999915,91.631936" id="路径-115" stroke="#13161A" opacity="0.392554874"></path>
                    <path d="M172.142164,69.6242658 L172.142164,96.833749" id="路径-114-copy" stroke="#313B40" opacity="0.392554874"></path>
                </g>
                <g id="分组-10">
                    <g id="分组-17" transform="translate(249.229706, 4.801674)">
                        <g id="分组-14">
                            <g id="分组-11-copy-2" transform="translate(71.307397, 146.360480) rotate(68.000000) translate(-71.307397, -146.360480) translate(60.807397, 111.360480)">
                                <polygon id="路径-9-copy-10" fill="#FFC1C7" points="8.20299577 4.21063221 1.52429645 48.2520181 16.8967176 53.1251381 20.2031179 0.22010145"></polygon>
                                <path d="M1.50697881,47.4984795 C5.52912096,48.3599686 11.1925272,49.3420366 18.4971974,50.4446836 L18.0094855,67.1358967 L7.60045497,69.2015379 C1.35838615,54.5888923 -0.672772569,47.3545395 1.50697881,47.4984795 Z" id="矩形-copy-9" fill="#313B40"></path>
                                <path d="M1.71179065,46.9158592 C7.31543707,47.8440177 12.9190835,48.7721763 18.5227299,49.7003348" id="路径-16-copy-7" stroke="#13161A"></path>
                            </g>
                            <g id="分组-11" transform="translate(59.804505, 153.019812) scale(-1, 1) rotate(60.000000) translate(-59.804505, -153.019812) translate(49.304505, 118.019812)">
                                <polygon id="路径-9-copy-10" fill="#FFC1C7" points="8.20299577 4.21063221 1.52429645 48.2520181 16.8967176 53.1251381 20.2031179 0.22010145"></polygon>
                                <path d="M1.50697881,47.4984795 C5.52912096,48.3599686 11.1925272,49.3420366 18.4971974,50.4446836 L18.0094855,67.1358967 L7.60045497,69.2015379 C1.35838615,54.5888923 -0.672772569,47.3545395 1.50697881,47.4984795 Z" id="矩形-copy-9" fill="#4D5761"></path>
                                <path d="M1.71179065,46.9158592 C7.31543707,47.8440177 12.9190835,48.7721763 18.5227299,49.7003348" id="路径-16-copy-7" stroke="#13161A"></path>
                            </g>
                            <polygon id="路径-129" fill="#2F2E41" points="63.5079928 115.219538 12.1412339 117.005901 4.66970535 132.854551 37.8832126 177.00242 61.6401106 141.362877 81.964825 136.567185 95.2170715 161.538167 124.214162 145.84877 124.214162 130.070075 108.337164 121.716648"></polygon>
                            <path d="M61.6401106,141.362877 L73.1753257,150.471717" id="路径-130" stroke="#13161A"></path>
                            <polyline id="路径-131" stroke="#FFFFFF" stroke-linejoin="round" points="60.4832486 133.922334 32.1226822 126.48179 61.6401106 141.362877"></polyline>
                            <path d="M81.964825,136.567185 L98.9977535,130.070075" id="路径-132" stroke="#FFFFFF"></path>
                            <g id="分组-13" transform="translate(22.064302, 46.677778) rotate(17.000000) translate(-22.064302, -46.677778) translate(4.064302, 31.677778)">
                                <path d="M27.47894,26.3068152 C25.4762677,23.2915985 9.38827269,19.7908457 10.734067,8.77330663 C11.6312632,1.42828057 19.1761281,4.81135175 33.3686616,18.9225202 C30.7772954,25.855528 28.8140549,28.3169596 27.47894,26.3068152 Z" id="路径-65" fill="#FFC1C7" transform="translate(22.011449, 15.993126) rotate(12.000000) translate(-22.011449, -15.993126) "></path>
                                <g id="分组-9" transform="translate(13.964472, 11.488364) rotate(-1.000000) translate(-13.964472, -11.488364) translate(0.964472, 0.988364)">
                                    <polygon id="路径-66" fill="#13161A" transform="translate(12.835044, 10.614601) rotate(-6.000000) translate(-12.835044, -10.614601) " points="0.931443778 5.48358858 10.2594495 1.85405776 24.7386446 15.9853432 15.8824801 19.3751439"></polygon>
                                    <polygon id="路径-66-copy" stroke="#13161A" fill="#FFFFFF" transform="translate(13.970437, 10.284160) rotate(-6.000000) translate(-13.970437, -10.284160) " points="2.76066397 5.39034607 11.5449061 1.92846343 25.1802106 15.4066292 16.8403039 18.639856"></polygon>
                                </g>
                                <ellipse id="椭圆形" fill="#FFC1C7" transform="translate(19.939310, 9.377924) rotate(-92.000000) translate(-19.939310, -9.377924) " cx="19.9393101" cy="9.37792422" rx="1.85633134" ry="3.73573611"></ellipse>
                            </g>
                            <path d="M73.314374,40.9668553 L52.3006999,45.6717594 L46.5632675,121.716648 L109.271105,125.429282 L113.940811,56.7455504 C100.498255,47.8646913 90.2249032,42.0446898 83.1207553,39.2855459 C76.0166073,36.526402 72.7478136,37.0868384 73.314374,40.9668553 Z" id="路径-123" fill="#0092FF"></path>
                            <g id="分组-12" transform="translate(58.838287, 0.000000)">
                                <path d="M24.7252797,42.596294 C24.7342628,42.7196913 24.7388324,42.8443045 24.7388324,42.9699784 C24.7388324,45.7893213 22.4390642,48.0748504 19.6021565,48.0748504 C16.7652487,48.0748504 14.4654806,45.7893213 14.4654806,42.9699784 C14.4654806,42.8443045 14.4700502,42.7196913 14.4790333,42.596294 C14.4700824,42.5195114 14.4654806,42.4414012 14.4654806,42.3622162 L14.4654806,36.1524723 C14.4654806,35.0479028 15.3609111,34.1524723 16.4654806,34.1524723 L22.7388324,34.1524723 C23.8434019,34.1524723 24.7388324,35.0479028 24.7388324,36.1524723 L24.7388324,42.3622162 C24.7388324,42.4414012 24.7342305,42.5195114 24.7252797,42.596294 Z" id="合并形状-copy" fill="#FFC1C7" transform="translate(19.602156, 41.113661) rotate(10.000000) translate(-19.602156, -41.113661) "></path>
                                <path d="M14.0091161,45.5397249 C19.3246542,47.7393431 23.0263076,49.7969056 24.2824678,43.0058882" id="路径-11-copy-2" stroke="#13161A"></path>
                                <g id="分组-5-copy-2" transform="translate(21.473492, 21.525189) rotate(10.000000) translate(-21.473492, -21.525189) translate(2.973492, 3.025189)" fill-rule="nonzero">
                                    <ellipse id="椭圆形" fill="#4D5761" cx="18.8327874" cy="18.4011678" rx="17.7448803" ry="17.6350122"></ellipse>
                                    <ellipse id="椭圆形" fill="#FFC1C7" cx="16.8202787" cy="20.0296612" rx="16.8202787" ry="16.7161353"></ellipse>
                                    <path d="M29.5246935,29.8651643 C22.4697493,36.8764277 11.1172745,37.1440426 3.73576428,30.4730938 C8.37028112,35.5379539 15.4325643,37.6585511 22.113753,35.9914666 C27.0515848,34.759383 31.1895161,31.6060543 33.6899542,27.3638871 C34.5727618,25.8661425 35.2514524,24.2326717 35.6891634,22.5001089 C37.366634,15.8602871 35.2328252,8.84173027 30.1364105,4.23590822 C36.8489201,11.5717155 36.5796378,22.853901 29.5246935,29.8651643 Z" id="路径" fill="#000000" opacity="0.1"></path>
                                </g>
                                <path d="M18.305245,8.08352423 C15.5034218,10.8679998 16.8109393,14.0502577 15.8769982,14.0502577 C14.9430571,14.0502577 24.2270228,15.9003837 21.6385914,23.6478933 C21.2251296,24.885438 21.2851075,26.3270189 21.8185252,27.9726358 L23.3485268,27.9726358 C23.3485268,23.0224569 24.2824678,20.5473675 26.15035,20.5473675 C28.9521732,20.5473675 28.8223896,23.3318431 28.0182321,27.9726358 C27.8882311,28.7228713 27.6982247,29.5129223 27.4482127,30.3427888 C26.9275456,32.0710431 28.3216553,34.0264744 31.630542,36.2090827 C36.5685779,33.1932075 39.9096545,27.5306555 41.6537717,19.2214267 C45.1955467,2.34789488 21.1070682,5.29904862 18.305245,8.08352423 Z" id="路径-122" fill="#4D5761"></path>
                            </g>
                            <polygon id="路径-124" fill="#0092FF" points="52.3006999 48.855546 47.6309946 74.3805627 42.0273482 76.3925454 37.0409393 49.3202821 1.86788214 70.6679285 23.2995836 96.6563676 55.1025231 98.5126846 58.8382874 82.7339895"></polygon>
                            <path d="M15.8200566,61.0908429 L35.0547461,50.7125199" id="路径-67" stroke="#13161A"></path>
                            <polyline id="路径-128" stroke="#13161A" points="46.5632675 98.5126846 56.9704053 98.5126846 58.8382874 54.0881083"></polyline>
                            <path d="M68.4445829,111.813937 C66.4325938,108.786143 54.5714756,103.480651 54.5484228,95.2325039 C54.5330543,89.7337392 60.0893637,91.3877961 71.217351,100.194674 C70.7101651,109.959379 69.7859091,113.832466 68.4445829,111.813937 Z" id="路径-65-copy" fill="#FFC1C7" transform="translate(62.882871, 102.197359) rotate(-32.000000) translate(-62.882871, -102.197359) "></path>
                            <polygon id="路径-126" fill="#0092FF" points="100.286771 59.530026 87.7478293 93.871892 64.4419339 93.871892 62.893281 127.903747 116.742634 105.009794 113.940811 59.530026"></polygon>
                            <path d="M63.4506094,110.114666 L64.5674513,93.4078127" id="路径-67-copy" stroke="#13161A"></path>
                            <polyline id="路径-127" stroke="#13161A" points="68.88965 96.0823845 100.286771 93.4078127 100.286771 63.9345194"></polyline>
                            <path d="M74.64898,123.572965 C75.1188227,122.33542 86.6595311,117.075855 109.271105,107.79427" id="路径-9" stroke="#13161A"></path>
                        </g>
                    </g>
                    <g id="分组-7" transform="translate(0.000000, 36.812830)">
                        <path d="M32.13902,84.5148534 C36.1605588,87.0277233 38.1716997,89.037425 38.1724425,90.5439584 C38.1735567,92.8037586 40.4375758,98.0777399 50.9919796,100.34274 C53.8296879,100.951719 53.7897547,101.641093 54.0072052,100.344225 C54.2799577,98.7175386 55.0817834,93.3524889 53.2485706,90.5513866 C51.1074143,87.2797545 45.2741201,86.6212705 41.5623429,86.0260294 C35.2801276,85.0185788 32.13902,84.5148534 32.13902,84.5148534 Z" id="路径-113" fill="#396F30" transform="translate(43.278364, 92.797579) rotate(-27.000000) translate(-43.278364, -92.797579) "></path>
                        <path d="M54.1409135,94.6812397 C60.453113,98.5546038 64.5856896,104.077172 66.5386435,111.248944 C68.4915974,118.420717 69.0073065,129.967905 68.0857708,145.890508" id="路径-112" stroke="#39742C" stroke-width="3"></path>
                        <path d="M77.8485782,72.3255503 C77.8485782,68.3901469 77.8485782,46.484281 84.7657654,37.4473513 C89.3772235,31.4227314 97.1247697,26.6532407 108.008404,23.1388792 C99.7144519,33.6819639 94.1851505,40.2086354 91.4204998,42.7188936 C87.2735237,46.484281 92.9284911,53.0919623 92.9284911,60.7927532 C92.9284911,68.493544 77.8485782,76.2609537 77.8485782,72.3255503 Z" id="路径-110" fill="#39742C"></path>
                        <path d="M80.8645608,72.0889153 C71.5266147,81.56263 65.7459814,109.426497 63.5226609,155.680516" id="路径-105-copy" stroke="#39742C" stroke-width="3"></path>
                        <path d="M83.2933292,98.8986107 C78.8268128,102.484207 76.0602584,113.028126 74.993666,130.530369" id="路径-105-copy-2" stroke="#39742C" stroke-width="3" transform="translate(79.143498, 114.714490) rotate(9.000000) translate(-79.143498, -114.714490) "></path>
                        <path d="M66.5386435,72.0889153 C71.816613,94.6812397 73.5759362,118.779719 71.816613,144.384353" id="路径-103" stroke="#26BC69" stroke-width="3" stroke-linecap="round"></path>
                        <path d="M95.190478,70.5827604 C84.634539,79.1176385 78.0999101,104.220221 75.5865913,145.890508" id="路径-105" stroke="#6DBE5C" stroke-width="3"></path>
                        <path d="M53.6798995,76.8217801 C59.2098932,76.8243599 67.2245418,71.5941535 70.1449435,62.0660104 C71.9516314,56.1714853 69.873824,48.0084426 69.8702237,40.2971299 C69.8654104,29.9876347 66.0617582,30.4842424 63.0114802,23.8406012 C60.0922159,17.4823136 58.0231065,3.75939962 53.6457868,3.75735751 C50.9272035,3.75608924 46.6135415,9.15417547 43.7839736,11.5509514 C40.5042351,14.3290429 39.1673956,15.4983316 37.643305,21.1514465 C36.8179751,24.2127374 38.3158744,27.6873163 38.6075983,31.5722526 C38.8426708,34.7027527 37.885476,38.9389178 37.8869231,42.0382741 C37.8905873,49.8864649 41.6185246,53.1090785 43.410064,58.739551 C46.2242266,67.5839362 48.2106312,76.8192285 53.6798995,76.8217801 Z" id="椭圆形" fill="#26BC69" transform="translate(54.140550, 40.289569) rotate(-25.000000) translate(-54.140550, -40.289569) "></path>
                        <path d="M46.2198971,25.3981116 C61.7119129,43.4719711 68.9718352,59.0355724 67.9996642,72.0889153" id="路径-107" stroke="#0F944A"></path>
                        <path d="M92.2373284,74.5181638 C81.1787256,64.9791824 82.1840531,57.6994334 95.253311,52.6789169 C108.322569,47.6584004 116.616521,44.3383926 120.135167,42.7188936 C117.119185,56.3876323 113.097875,64.2261049 108.071237,66.2343115 C103.044599,68.2425182 97.7666298,71.0038023 92.2373284,74.5181638 Z" id="路径-109" fill="#6DBE5C"></path>
                        <path d="M39.3948003,74.5181638 C47.9400843,78.421233 54.7260451,84.3891808 59.7526827,92.4220073 C68.6261038,106.602192 69.4603766,123.6245 69.4603766,142.125121" id="路径-104" stroke="#0F944A" stroke-width="3" stroke-linecap="round"></path>
                        <path d="M41.5377041,82.2389639 C18.1322944,65.6651861 5.42379069,55.1187352 3.41219293,50.5996111 C0.394796288,43.820925 15.0567868,56.6271541 28.2943219,56.6301736 C41.5318569,56.633193 23.7719784,62.8906744 36.589626,64.1631744 C45.1347244,65.0115077 46.7840837,71.0367708 41.5377041,82.2389639 Z" id="路径-108" fill="#0F944A" transform="translate(23.772260, 65.429560) rotate(-11.000000) translate(-23.772260, -65.429560) "></path>
                        <g id="路径-2" transform="translate(56.736700, 135.553946)">
                            <mask id="mask-2" fill="white">
                                <use xlink:href="#path-1"></use>
                            </mask>
                            <use id="Mask" fill="#4D5761" xlink:href="#path-1"></use>
                            <path d="M21.1118781,-4.57159366 L22.4067974,43.6784938 C37.9010345,37.653874 45.648153,32.8843833 45.648153,29.3700217 C45.648153,25.8556601 41.5587738,13.3043688 33.3800155,-8.28385228 L21.1118781,-4.57159366 Z" fill="#313B40" mask="url(#mask-2)"></path>
                        </g>
                        <path d="M84.634539,99.9527821 C82.3725521,96.9404722 99.8129543,82.6320001 102.384853,82.6320001 C105.22001,82.6320001 102.420523,90.7171032 101.222443,92.4220073 C99.6886843,94.6045937 100.839042,98.2615557 97.4524649,99.9527821 C91.4204998,102.965092 86.8965259,102.965092 84.634539,99.9527821 Z" id="路径-111" fill="#39742C"></path>
                    </g>
                    <g id="分组-12-copy" transform="translate(311.737478, 0.000000)">
                        <g id="分组-4-copy-2" transform="translate(42.095473, 19.569497) rotate(56.000000) translate(-42.095473, -19.569497) translate(34.595473, 11.569497)" fill-rule="nonzero">
                            <g id="分组-3" transform="translate(0.791035, 0.167556)">
                                <g id="分组-2">
                                    <ellipse id="椭圆形" fill="#2F2E41" cx="6.72155652" cy="6.67911658" rx="5.65507946" ry="5.39685391"></ellipse>
                                    <g id="分组">
                                        <path d="M1.08746964,6.2934619 C1.07818446,6.42137134 1.06688076,6.54889552 1.06688076,6.67873131 C1.09311145,9.64143375 3.61718744,12.0299869 6.72175837,12.0299869 C9.8263293,12.0299869 12.3504053,9.64143375 12.376636,6.67873131 C12.376636,6.54851025 12.365736,6.42098607 12.3560471,6.2934619 C12.1457677,9.11563269 9.68622725,11.303097 6.72155652,11.3046611 C3.75728949,11.303097 1.29774908,9.11563269 1.08746964,6.2934619 Z" id="路径" fill="#000000" opacity="0.1"></path>
                                        <path d="M0.797610488,5.65121779 C0.791552049,3.98004767 1.59990497,2.40115629 2.98504221,1.37868166 C4.37017945,0.356207036 6.17467624,0.00635627353 7.86807463,0.431973077 C5.91835294,-0.361094749 3.66757199,-0.0464953225 2.038051,1.24685561 C0.40853001,2.54020655 -0.325811648,4.59489917 0.13594266,6.56896681 C0.597696969,8.54303446 2.17792723,10.1046401 4.22909074,10.6138731 C2.14753873,9.76423323 0.797502834,7.81179223 0.797610488,5.65121779 Z" id="路径" fill="#2F2E41"></path>
                                        <path d="M7.72193394,10.8176806 C6.43291459,9.68651083 5.7681648,8.04774453 5.92309702,6.38311986 C6.07802925,4.7184952 7.03503504,3.21720104 8.51278921,2.32056373 C6.57759118,3.14654852 5.28946335,4.93656821 5.17646376,6.95681806 C5.06346417,8.97706791 6.1445971,10.8877824 7.97666045,11.9056789 C9.8087238,12.9235753 12.0836012,12.877464 13.8687243,11.7862479 C11.8013369,12.6665705 9.38306067,12.2855158 7.72193394,10.8176806 L7.72193394,10.8176806 Z" id="路径" fill="#2F2E41"></path>
                                    </g>
                                    <path d="M5.90163459,10.3961959 C5.364587,8.80551838 5.63292895,7.06696981 6.62777506,5.69163707 C7.62262116,4.31630434 9.23090044,3.4605033 10.9798217,3.37581665 C8.86981094,3.18453602 6.8250167,4.13596625 5.68340094,5.84020875 C4.54178517,7.54445126 4.49526558,9.71500482 5.56290601,11.462371 C6.63054643,13.2097371 8.63286522,14.2401651 10.7493069,14.1313828 C8.49592117,13.9244903 6.58891808,12.4551518 5.90203829,10.3965811 L5.90163459,10.3961959 Z" id="路径" fill="#2F2E41"></path>
                                </g>
                            </g>
                        </g>
                        <path d="M3.7937945,15.8734018 C1.23975506,12.6013152 -0.0247210977,10.239279 0.0003660333,8.78729325 C0.059195411,5.38238346 2.29281824,2.35381183 3.23882046,1.37758451 C5.56550097,-1.02343424 7.25168619,0.443854995 7.25168619,0.443854995 C7.25168619,0.443854995 7.53724957,0.621708236 8.10837631,0.977414719 C9.03044136,0.453085364 9.66276026,0.275232123 10.005333,0.443854995 C10.3479057,0.612477867 10.6946613,0.923721039 11.0455996,1.37758451 C18.8703138,4.1941129 25.6216887,5.91362027 31.2997241,6.53610661 C36.9777595,7.15859296 39.6211402,11.9156183 39.2298662,20.8071827 C36.4430405,20.8191331 32.8365116,19.2822769 28.4102793,16.196614 C21.7709309,11.5681196 19.7833661,12.1384837 13.2112978,12.1384837 C8.82991897,12.1384837 5.69075119,13.3834564 3.7937945,15.8734018 Z" id="路径-123-copy-3" fill="#2F2E41"></path>
                    </g>
                    <path d="M16.4283247,211.273634 L135.425707,211.673774" id="路径-145" stroke="#13161A"></path>
                    <path d="M191.300143,211.273634 L201.146805,211.273634" id="路径-145-copy" stroke="#13161A"></path>
                    <path d="M205.554404,211.273634 L270.867012,211.273634" id="路径-145-copy-2" stroke="#13161A"></path>
                    <path d="M290.500864,211.273634 L464,211.273634" id="路径-145-copy-3" stroke="#13161A"></path>
                </g>
            </g>
            <g id="分组-25" transform="translate(172.000000, 144.000000)">
                <g id="分组-7-copy-2">
                    <path d="M54.2244523,66.5729167 C57.9472987,68.7118056 60.8723923,68.7118056 62.9997332,66.5729167 C65.127074,64.4340278 64.5952388,61.7587057 61.4042275,58.5469504 C60.3405571,55.7217511 61.9360627,54.7489457 66.1907444,55.6285341 C72.5727669,56.9479167 70.9772612,69.78125 66.9884972,71.3854167 C62.9997332,72.9895833 57.4498227,73.7916667 51.033441,71.3854167 C46.7558533,69.78125 47.8195237,68.1770833 54.2244523,66.5729167 Z" id="路径-140" fill="#FFC82C"></path>
                    <path d="M10.3480478,7.21875 C10.3480478,13.871198 9.28437735,19.4699915 7.15703653,24.0151303 C6.27384144,25.9021079 2.56960542,34.7380848 1.54124472,39.5933367 C-1.14589366,52.2802603 -1.75194202,69.9812259 11.9435534,74.0742585 C22.0484223,77.0941973 33.7487968,77.0941973 47.044677,74.0742585 C54.4903699,71.7401311 58.2132163,66.5643617 58.2132163,58.5469504 C58.2132163,50.529539 57.1495459,44.1145833 55.0222051,39.3020833 C51.8311938,32.8854167 49.703853,27.5381944 48.6401826,23.2604167 C47.5765122,18.9826389 46.5128418,11.2291667 45.4491714,0 L36.6738905,5.67317006 C33.1283224,5.09939002 30.4691464,4.8125 28.6963624,4.8125 C26.9235784,4.8125 24.2644023,5.09939002 20.7188343,5.67317006 L10.3480478,0 L10.3480478,7.21875 Z" id="路径-134" fill="#FFC82C"></path>
                    <path d="M45.3783306,0.832054097 C46.4155252,11.612996 47.4527199,19.0891169 48.4899145,23.2604167 C49.5535849,27.5381944 51.6809257,32.8854167 54.871937,39.3020833 C56.9992778,44.1145833 58.0629482,50.529539 58.0629482,58.5469504 C58.0629482,66.5643617 54.3401018,71.7401311 46.8944089,74.0742585 C33.5985287,77.0941973 21.8981542,77.0941973 11.7932853,74.0742585 C9.65702454,73.4358161 7.8687291,72.4662844 6.38202045,71.2363366 C7.30069982,71.7282902 8.30461765,72.1427181 9.40002686,72.4700918 C19.5048958,75.4900306 31.2052703,75.4900306 44.5011505,72.4700918 C51.9468433,70.1359644 55.6696898,64.9601951 55.6696898,56.9427837 C55.6696898,48.9253723 54.6060194,42.5104167 52.4786785,37.6979167 C49.2876673,31.28125 47.1603265,25.9340278 46.0966561,21.65625 C45.088017,17.5997924 44.8485751,10.6583937 45.3783306,0.832054097 Z" id="合并形状" fill-opacity="0.1" fill="#000000"></path>
                    <path d="M24.7674332,72.946376 C17.8555692,69.9107452 12.7413062,59.0511175 12.7413062,46.1197917 C12.7413062,30.8370371 19.8846282,18.4479167 28.6963624,18.4479167 C37.5080966,18.4479167 44.6514186,30.8370371 44.6514186,46.1197917 C44.6514186,59.3774829 39.2757467,70.457584 32.0985775,73.1611755 C32.9464371,73.8946411 33.4828792,74.9784242 33.4828792,76.1875 L33.4828792,76.1979167 L23.1120927,76.1979167 L23.1120927,76.1875 C23.1120927,74.8541621 23.7644661,73.6731941 24.7674332,72.946376 Z" id="合并形状" fill="#FFFFFF" opacity="0.7"></path>
                    <ellipse id="椭圆形" fill="#FFFFFF" cx="16.7300702" cy="15.2395833" rx="4.78651685" ry="4.8125"></ellipse>
                    <ellipse id="椭圆形" fill="#13161A" cx="19.5222051" cy="14.0364583" rx="1.99438202" ry="2.00520833"></ellipse>
                    <ellipse id="椭圆形-copy-8" fill="#FFFFFF" cx="39.8649017" cy="15.2395833" rx="4.78651685" ry="4.8125"></ellipse>
                    <path d="" id="路径-135" stroke="#979797"></path>
                    <path d="M8.75254215,36.09375 C10.879883,39.8368056 13.539059,41.9756944 16.7300702,42.5104167 C21.5165871,43.3125 23.1120927,43.3125 23.1120927,44.9166667 C23.1120927,46.5208333 22.3143399,50.5519223 11.9435534,48.9270833 C5.0296957,47.8438574 2.63643728,46.5070518 4.7637781,44.9166667" id="路径-136" fill="#FFC82C"></path>
                    <path d="" id="路径-138" stroke="#979797"></path>
                    <path d="" id="路径-139" stroke="#979797"></path>
                    <ellipse id="椭圆形-copy-9" fill="#13161A" cx="41.8592837" cy="13.234375" rx="1.99438202" ry="2.00520833"></ellipse>
                    <g id="分组-6" transform="translate(8.752542, 19.957344)" stroke="#FFFFFF" stroke-linecap="round">
                        <path d="M1.59550562,0 L9.1741573,2.50098931" id="路径-141"></path>
                        <path d="M0,2.50098931 L9.1741573,2.90203098" id="路径-141-copy"></path>
                        <path d="M0,4.90723931 L9.57303371,3.20833333" id="路径-141-copy-2"></path>
                    </g>
                    <g id="分组-6-copy" transform="translate(42.044677, 22.552083) scale(-1, 1) translate(-42.044677, -22.552083) translate(37.044677, 20.052083)" stroke="#FFFFFF" stroke-linecap="round">
                        <path d="M1.59550562,0 L9.1741573,2.50098931" id="路径-141"></path>
                        <path d="M0,2.50098931 L9.1741573,2.90203098" id="路径-141-copy"></path>
                        <path d="M0,4.90723931 L9.57303371,3.20833333" id="路径-141-copy-2"></path>
                    </g>
                    <polygon id="路径-142" fill="#FFFFFF" points="50.2356882 10.4270833 43.8536657 29.6770833 52.6289466 32.8854167 59.8087219 13.6354167"></polygon>
                    <polygon id="路径-143" fill="#0092FF" points="51.033441 12.03125 45.4491714 28.7802607 51.8311938 31.1865107 58.2132163 14.4375"></polygon>
                    <path d="M48.6401826,36.09375 C51.8311938,30.7465278 52.363029,27.2708333 50.2356882,25.6666667 C47.044677,23.2604167 52.6289466,18.4479167 54.2244523,22.0572917 C55.8199579,25.6666667 60.6064747,35.6927083 54.2244523,40.90625" id="路径-137" fill="#FFC82C"></path>
                </g>
                <g id="分组-24" transform="translate(11.966292, 2.406250)" fill="#FFFFFF" fill-opacity="0.7">
                    <path d="M0,0.802083333 L0,7.21875 C0.0531404709,5.66942833 0.592796783,4.59998388 1.61896894,4.01041667 C2.64514109,3.42084945 3.966908,3.42084945 5.58426966,4.01041667 L0,0.802083333 Z" id="路径-144"></path>
                    <path d="M27.1463343,0 L27.1463343,6.41666667 C27.1994747,4.86734499 27.739131,3.79790055 28.7653032,3.20833333 C29.7914753,2.61876612 31.1132423,2.61876612 32.7306039,3.20833333 L27.1463343,0 Z" id="路径-144-copy" transform="translate(29.938469, 3.208333) scale(-1, 1) translate(-29.938469, -3.208333) "></path>
                </g>
            </g>
        </g>
    </g>
</svg>