<?xml version="1.0" encoding="UTF-8"?>
<svg width="501px" height="285px" viewBox="0 0 501 285" version="1.1" xmlns="http://www.w3.org/2000/svg" xmlns:xlink="http://www.w3.org/1999/xlink">
    <!-- Generator: Sketch 53.2 (72643) - https://sketchapp.com -->
    <title>在家办公1</title>
    <desc>Created with Sketch.</desc>
    <defs>
        <polygon id="path-1" points="0 0.617466493 33.8713043 0.617466493 28.7906087 44.0074551 5.08069565 44.0074551"></polygon>
        <path d="M0.181312889,0 C-1.36778224,23.7849462 7.00945388,35.6774194 25.3130213,35.6774194 C43.6165887,35.6774194 59.8472119,35.6774194 74.0048911,35.6774194 L73.8157125,75.1774194 L129.128116,55.2150538 L91.8449597,0 L0.181312889,0 Z" id="path-3"></path>
    </defs>
    <g id="页面-1" stroke="none" stroke-width="1" fill="none" fill-rule="evenodd">
        <g id="在家办公1">
            <g id="分组-14" transform="translate(293.049367, 80.139199) rotate(9.000000) translate(-293.049367, -80.139199) translate(268.549367, 50.139199)">
                <g id="物理元素/生活道具/纸飞机" transform="translate(36.373436, 9.849281) scale(-1, 1) rotate(1.000000) translate(-36.373436, -9.849281) translate(24.873436, 0.849281)" fill="#0092FF">
                    <g id="发送" transform="translate(11.674830, 8.975614) scale(-1, 1) translate(-11.674830, -8.975614) translate(0.674830, 0.475614)">
                        <path d="M0,8.88118092 L6.02830348,11.6971651 L18.4959311,2.7076771 L8.22041383,11.9137793 L16.4408277,14.0799209 L21.9211035,0 L0,8.88118092 Z M8.22041383,16.6792909 L10.9605518,14.0799209 L8.22041383,12.9968501 L8.22041383,16.6792909 Z" id="形状"></path>
                    </g>
                </g>
                <path d="M33.5111722,22.1813914 C19.1608939,23.5882513 29.6197169,41.2095615 24.0256932,50.7942726 C20.2089204,57.3338705 7.09608746,55.8607296 3.79133324,56.1260249" id="路径-79" stroke="#13161A" transform="translate(18.651253, 39.153708) rotate(-13.000000) translate(-18.651253, -39.153708) "></path>
            </g>
            <g id="分组-7" transform="translate(0.000000, 86.000000)">
                <path d="M36.1008052,95.5182429 C40.6159822,98.342808 42.8719521,100.60505 42.8687149,102.304969 C42.863859,104.854847 45.3953506,110.799706 57.2569975,113.326924 C60.4461774,114.006403 60.3994116,114.784378 60.6474268,113.320449 C60.9585173,111.484214 61.8746233,105.428308 59.8208617,102.272596 C57.4221089,98.5867865 50.8647129,97.8595445 46.6926597,97.1979287 C39.6314234,96.0781382 36.1008052,95.5182429 36.1008052,95.5182429 Z" id="路径-113" fill="#396F30" transform="translate(48.611042, 104.835123) rotate(-27.000000) translate(-48.611042, -104.835123) "></path>
                <path d="M60.803513,106.965478 C67.8924939,111.341384 72.5336269,117.580467 74.7269119,125.682728 C76.920197,133.784988 77.4993694,146.830344 76.4644292,164.818796" id="路径-112" stroke="#39742C" stroke-width="3"></path>
                <path d="M87.4286511,81.7092918 C87.4286511,77.2632969 87.4286511,52.515296 95.1970697,42.3058869 C100.376015,35.4996142 109.076977,30.111315 121.299955,26.1409892 C111.985347,38.0519665 105.775608,45.4254286 102.670738,48.2613756 C98.0134337,52.515296 104.364303,59.9802784 104.364303,68.6801937 C104.364303,77.3801091 87.4286511,86.1552867 87.4286511,81.7092918 Z" id="路径-110" fill="#39742C"></path>
                <path d="M90.8157815,81.4419551 C80.3287046,92.1448189 73.8367046,123.62383 71.3397815,175.878989" id="路径-105-copy" stroke="#39742C" stroke-width="3"></path>
                <path d="M93.5277831,111.736895 C88.5145875,115.782499 85.4180145,127.689839 84.2380643,147.458913" id="路径-105-copy-2" stroke="#39742C" stroke-width="3" transform="translate(88.882924, 129.597904) rotate(9.000000) translate(-88.882924, -129.597904) "></path>
                <path d="M74.7269119,81.4419551 C80.6543902,106.965478 82.6302163,134.190569 80.6543902,163.117228" id="路径-103" stroke="#26BC69" stroke-width="3" stroke-linecap="round"></path>
                <path d="M106.904651,79.7403869 C95.0496945,89.3826066 87.7109119,117.742076 84.8883032,164.818796" id="路径-105" stroke="#6DBE5C" stroke-width="3"></path>
                <path d="M60.1920692,86.7456346 C66.4091797,86.7343913 75.4330673,80.8113297 78.7407291,70.0508731 C80.786993,63.3939852 78.4719043,54.1869056 78.4875949,45.4843166 C78.5085721,33.8495531 74.2310301,34.4197355 70.8187484,26.929865 C67.553029,19.7616948 65.2619505,4.28000297 60.3407368,4.28890274 C57.2843621,4.29443004 52.4208936,10.3974791 49.2336059,13.1096022 C45.5392359,16.253211 44.033296,17.576233 42.3053611,23.9599543 C41.3696449,27.4168852 43.0447704,31.3342855 43.3627981,35.7178818 C43.6190663,39.2502045 42.5320932,44.0333767 42.5257868,47.53115 C42.5098177,56.3882126 46.6927172,60.0155495 48.6924504,66.3652308 C51.8336452,76.3393542 54.0432294,86.7567545 60.1920692,86.7456346 Z" id="椭圆形" fill="#26BC69" transform="translate(60.805127, 45.517271) rotate(-25.000000) translate(-60.805127, -45.517271) "></path>
                <path d="M51.9077335,28.6933415 C69.3062021,49.1121597 77.459533,66.6950309 76.3677263,81.4419551" id="路径-107" stroke="#0F944A"></path>
                <path d="M103.588086,84.1863818 C91.1686076,73.4097833 92.2976511,65.1855371 106.975216,59.5136432 C121.652781,53.8417492 130.96739,50.0909934 134.919042,48.2613756 C131.531912,63.7035388 127.015738,72.5589992 121.370521,74.8277568 C115.725303,77.0965144 109.797825,80.2160561 103.588086,84.1863818 Z" id="路径-109" fill="#6DBE5C"></path>
                <path d="M44.242738,84.1863818 C53.8396076,88.5958473 61.4606511,95.3380952 67.1058685,104.413126 C77.0712558,120.433092 78.0081945,139.663927 78.0081945,160.564876" id="路径-104" stroke="#0F944A" stroke-width="3" stroke-linecap="round"></path>
                <path d="M46.6327955,92.8813619 C20.3621589,74.1905798 6.09985126,62.2942729 3.84587275,57.1924411 C0.46490499,49.5396934 16.9187429,63.9859742 31.7885106,63.9728152 C46.6582782,63.9596561 26.7007094,71.0497103 41.0972269,72.4709548 C50.6949053,73.4184512 52.5400948,80.2219202 46.6327955,92.8813619 Z" id="路径-108" fill="#0F944A" transform="translate(26.704067, 73.918846) rotate(-11.000000) translate(-26.704067, -73.918846) "></path>
                <g id="路径-2" transform="translate(63.718738, 153.141136)">
                    <mask id="mask-2" fill="white">
                        <use xlink:href="#path-1"></use>
                    </mask>
                    <use id="Mask" fill="#4D5761" xlink:href="#path-1"></use>
                    <path d="M23.709913,-5.16472642 L25.1641857,49.3454772 C42.5651488,42.5392045 51.2656304,37.1509053 51.2656304,33.1805795 C51.2656304,29.2102538 46.6730109,15.0305189 37.4877717,-9.358625 L23.709913,-5.16472642 Z" fill="#313B40" mask="url(#mask-2)"></path>
                </g>
                <path d="M95.0496945,112.920966 C92.5093467,109.51783 112.095971,93.3529324 114.984368,93.3529324 C118.168421,93.3529324 115.024427,102.487022 113.678912,104.413126 C111.956408,106.878888 113.248329,111.010315 109.444999,112.920966 C102.670738,116.324103 97.5900424,116.324103 95.0496945,112.920966 Z" id="路径-111" fill="#39742C"></path>
            </g>
            <path d="M167.5,64.0763311 L425.5,144.320861 L425.5,0.5 L167.5,0.5 L167.5,64.0763311 Z" id="路径" stroke="#13161A"></path>
            <g id="分组-8-copy" transform="translate(94.000000, 127.000000)">
                <rect id="矩形" fill="#4D5761" x="42.997263" y="0" width="139.248696" height="71.278092" rx="8"></rect>
                <rect id="矩形-copy-5" fill="#4D5761" x="181.396881" y="0" width="139.248696" height="71.278092" rx="8"></rect>
                <polygon id="矩形" fill="#13161A" points="26.8647922 125.58521 42.997263 125.58521 34.9310276 155.284415 26.8647922 155.284415"></polygon>
                <polygon id="矩形-copy-7" fill="#13161A" transform="translate(332.108122, 140.434812) scale(-1, 1) translate(-332.108122, -140.434812) " points="324.041887 125.58521 340.174357 125.58521 332.108122 155.284415 324.041887 155.284415"></polygon>
                <path d="M34.615519,28.0021076 L44.6271295,28.0021076 C47.3934925,28.0021076 49.9635399,29.4313018 51.423073,31.7813076 L79.642688,77.217933 L63.800256,114.572635 C62.0751613,118.640218 57.3792684,120.539179 53.3116858,118.814085 C52.3465657,118.404769 51.4713037,117.809756 50.7356642,117.062876 L2.78692721,68.3814674 C-0.270572282,65.2772484 -0.281657205,60.2970918 2.7619932,57.1792927 L28.891003,30.4137342 C30.396449,28.8716129 32.4604074,28.0021076 34.615519,28.0021076 Z" id="矩形" fill="#5E666D"></path>
                <path d="M322.471554,28.0021076 L332.483165,28.0021076 C335.249528,28.0021076 337.819575,29.4313018 339.279108,31.7813076 L367.498723,77.217933 L344.351056,116.000399 C342.086639,119.794288 337.175411,121.03417 333.381522,118.769753 C332.630844,118.321704 331.958681,117.753642 331.391765,117.088157 L289.870199,68.3473299 C287.189385,65.200408 287.347745,60.5292463 290.23553,57.5711089 L316.747038,30.4137342 C318.252484,28.8716129 320.316443,28.0021076 322.471554,28.0021076 Z" id="矩形-copy-10" fill="#5E666D" transform="translate(327.515140, 74.379857) scale(-1, 1) translate(-327.515140, -74.379857) "></path>
                <rect id="矩形" fill="#4D5761" x="26.8647922" y="117.948271" width="305.667869" height="22.9108153" rx="8"></rect>
                <path d="M25.5249406,53.458569 L36.0116666,53.458569 C40.0132972,53.458569 43.399401,56.4153134 43.9386859,60.3804388 L53.6496574,131.780956 C54.2450923,136.158928 51.1787402,140.190671 46.8007683,140.786106 C46.4434472,140.834704 46.0832489,140.859087 45.7226381,140.859087 L25.5249406,140.859087 C21.1066626,140.859087 17.5249406,137.277365 17.5249406,132.859087 L17.5249406,61.458569 C17.5249406,57.040291 21.1066626,53.458569 25.5249406,53.458569 Z" id="矩形" fill="#4D5761"></path>
                <path d="M335.340482,53.458569 L347.820284,53.458569 C351.569408,53.458569 354.608673,56.4978346 354.608673,60.2469587 L354.608673,60.2469587 L354.608673,132.859087 C354.608673,137.277365 351.026951,140.859087 346.608673,140.859087 L326.323152,140.859087 C321.904874,140.859087 318.323152,137.277365 318.323152,132.859087 C318.323152,132.523971 318.344208,132.189186 318.386197,131.856711 L327.403528,60.4561934 C327.908564,56.4572493 331.309773,53.458569 335.340482,53.458569 Z" id="矩形-copy-3" fill="#4D5761"></path>
                <rect id="矩形" fill="#4D5761" x="0.543392394" y="53.458569" width="42.4538706" height="25.4564614" rx="8"></rect>
                <rect id="矩形-copy-4" fill="#4D5761" x="327.438196" y="53.458569" width="42.4538706" height="25.4564614" rx="8"></rect>
                <path d="" id="路径-106" stroke="#979797"></path>
                <path d="M85.2208086,67.0353484 L293.62667,67.0353484 C296.656128,67.0353484 299.425705,68.7465645 300.781195,71.4558567 L318.248533,106.36878 C320.225432,110.320115 318.624835,115.125898 314.673499,117.102797 C313.562192,117.658797 312.336642,117.948271 311.094008,117.948271 L60.4844485,117.948271 C56.0661705,117.948271 52.4844485,114.366549 52.4844485,109.948271 C52.4844485,108.291352 52.9989221,106.67531 53.9568148,105.323339 L78.6931749,70.4104163 C80.1930558,68.2934829 82.6263819,67.0353484 85.2208086,67.0353484 Z" id="矩形-copy-8" fill="#7C868D"></path>
                <path d="M182.387525,5.09129229 L182.387525,50.0643742" id="路径-114" stroke="#313B40"></path>
                <path d="M70.3335029,61.9404942 C86.5944384,59.1143731 104.086784,57.7013126 122.81054,57.7013126 C140.900285,57.7013126 158.379317,59.0202972 175.247635,61.6582665 L175.247634,61.6582709 C179.141356,62.2671946 182.011566,65.6211507 182.011566,69.5621987 L182.011566,105.705528 C182.011566,110.123806 178.429844,113.705528 174.011566,113.705528 L59.1357118,113.705528 C54.7174338,113.705528 51.1357118,110.123806 51.1357118,105.705528 C51.1357118,104.805034 51.287746,103.911002 51.5854045,103.061126 L64.1530469,67.1779389 C65.1116387,64.4409634 67.4763448,62.4370631 70.3335029,61.9404942 Z" id="矩形" fill="#B4BBBF"></path>
                <path d="M204.433829,62.0124536 C221.239983,59.1383596 238.750236,57.7013126 256.964587,57.7013126 C274.495465,57.7013126 292.04038,59.0325358 309.599332,61.6949821 L309.599332,61.6949848 C313.509772,62.287921 316.400006,65.6494348 316.400006,69.6045727 L316.400006,105.705528 C316.400006,110.123806 312.818284,113.705528 308.400006,113.705528 L190.852558,113.705528 C186.43428,113.705528 182.852558,110.123806 182.852558,105.705528 C182.852558,104.648679 183.061962,103.602304 183.468674,102.626849 L198.398483,66.8192958 C199.453627,64.2886452 201.731254,62.4746328 204.433829,62.0124536 Z" id="矩形-copy-6" fill="#B4BBBF" transform="translate(249.322982, 85.703420) scale(-1, 1) translate(-249.322982, -85.703420) "></path>
                <path d="M66.7714306,97.1588278 L299.84318,97.1588278" id="路径-115" stroke="#13161A" opacity="0.392554874"></path>
                <path d="M182.387525,73.8237382 L182.387525,102.674394" id="路径-114-copy" stroke="#313B40" opacity="0.392554874"></path>
            </g>
            <g id="分组-15" transform="translate(381.481905, 158.821717) rotate(30.000000) translate(-381.481905, -158.821717) translate(355.981905, 128.321717)">
                <rect id="矩形" fill="#FFC82C" x="0.61396082" y="4.33338923" width="45.0142515" height="56.0144399"></rect>
                <rect id="矩形" stroke="#13161A" x="5.50856956" y="0.681708819" width="44.0142515" height="55.0144399"></rect>
            </g>
            <g id="分组-10" transform="translate(244.500000, 169.500000) scale(-1, 1) translate(-244.500000, -169.500000) translate(209.000000, 151.000000)">
                <polygon id="路径-44" stroke="#13161A" fill="#81C9FF" points="0 0 15.0749973 33.9684823 45.6619483 29.8510905 32.6624941 0"></polygon>
                <path d="M24.6981367,3.39684882 L28.9264816,3.40033535 C29.8605817,3.40110558 30.9459567,4.16214035 31.3507344,5.10015409 L33.5494793,10.1954264 C33.954257,11.1334402 33.5251564,11.8932262 32.5910563,11.8924559 L28.3627115,11.8889694 C27.4286113,11.8881992 26.3432363,11.1271644 25.9384586,10.1891507 L23.7397138,5.09387832 C23.334936,4.15586458 23.7640366,3.39607859 24.6981367,3.39684882 Z" id="矩形" fill="#FFFFFF"></path>
                <path d="M13.9050643,14.0110571 L33.4467711,13.5873929 C34.3806752,13.5877781 35.2724023,13.9683893 35.4384991,14.4375118 L35.9586562,16.137052 C36.124753,16.6061744 35.5023223,16.9861611 34.5684181,16.9857758 L15.2635063,17.8334532 C14.3296021,17.833068 13.7625507,17.4524568 13.5964538,16.9833344 L12.5148262,14.859781 C12.3487293,14.3906585 12.9711601,14.0106719 13.9050643,14.0110571 Z" id="矩形-copy-2" fill="#FFFFFF"></path>
                <path d="M15.9712057,19.8510297 L35.5129125,18.7682877 C36.4468166,18.7371754 37.3385436,19.0877115 37.5046405,19.5512321 L38.0247976,21.2332291 C38.1908944,21.6967496 37.5684636,22.0977288 36.6345595,22.1288411 L17.3296476,23.62761 C16.3957435,23.6587223 15.8286921,23.297236 15.6625952,22.8337154 L14.5809676,20.7466418 C14.4148707,20.2831212 15.0373015,19.882142 15.9712057,19.8510297 Z" id="矩形-copy-11" fill="#FFFFFF"></path>
                <path d="M18.5079806,25.4859027 L38.0496874,23.851523 C38.9835915,23.7940478 39.8753185,24.1194116 40.0414154,24.5782435 L40.5615725,26.2455571 C40.7276693,26.7043889 40.1052385,27.1229385 39.1713344,27.1804138 L19.8664225,29.2241359 C18.9325184,29.2816111 18.365467,28.9361319 18.1993701,28.4773 L17.1177425,26.4207594 C16.9516456,25.9619275 17.5740764,25.5433779 18.5079806,25.4859027 Z" id="矩形-copy-12" fill="#FFFFFF"></path>
                <polygon id="路径-9" fill="#4D5761" points="70.1841057 29.722422 70.1841057 31.6390316 60.8351725 36.5161185 15.2206494 35.5407011 15.2206494 33.8978929 60.8351725 31.6390316"></polygon>
                <polygon id="路径-45" stroke="#13161A" fill="#F2F2F2" stroke-linecap="round" stroke-linejoin="round" points="45.5232209 29.9091532 15.2206494 34.3022502 60.5431805 34.8176944 70.1841057 29.722422"></polygon>
            </g>
            <g id="分组-13" transform="translate(360.092784, 169.153221) rotate(-29.000000) translate(-360.092784, -169.153221) translate(338.592784, 141.653221)" stroke="#13161A">
                <rect id="矩形" fill="#FFFFFF" x="0.5" y="0.5" width="41.466275" height="53.3170326"></rect>
                <path d="M5.9452785,9.67008746 L20.9865591,9.42574432" id="路径-117"></path>
                <path d="M5.9452785,18.1571238 L37.9724955,18.1571238" id="路径-117-copy"></path>
                <path d="M5.9452785,27.4928638 L37.9724955,27.4928638" id="路径-117-copy-3"></path>
            </g>
            <g id="分组-16" transform="translate(344.000000, 24.000000)">
                <rect id="矩形-copy-17" fill="#0092FF" x="0" y="2.56641482" width="27.4512532" height="27.3750914"></rect>
                <rect id="矩形-copy-18" stroke="#13161A" x="3.93140665" y="0.5" width="26.4512532" height="26.3750914"></rect>
            </g>
            <g id="分组-21" transform="translate(168.000000, 2.000000)">
                <rect id="矩形" fill="#0092FF" x="0" y="0" width="255.280441" height="15.8927614"></rect>
                <g id="分组-17" transform="translate(4.240539, 5.018767)">
                    <ellipse id="椭圆形" fill="#FFC82C" cx="11.8735089" cy="2.50938338" rx="2.54432333" ry="2.50938338"></ellipse>
                    <ellipse id="椭圆形-copy-9" fill="#13CE66" cx="21.2026944" cy="2.50938338" rx="2.54432333" ry="2.50938338"></ellipse>
                    <ellipse id="椭圆形-copy-10" fill="#FF3B30" cx="2.54432333" cy="2.50938338" rx="2.54432333" ry="2.50938338"></ellipse>
                </g>
            </g>
            <g id="分组-14" transform="translate(293.049367, 80.139199) rotate(9.000000) translate(-293.049367, -80.139199) translate(268.549367, 50.139199)">
                <g id="物理元素/生活道具/纸飞机" transform="translate(36.373436, 9.849281) scale(-1, 1) rotate(1.000000) translate(-36.373436, -9.849281) translate(24.873436, 0.849281)" fill="#0092FF">
                    <g id="发送" transform="translate(11.674830, 8.975614) scale(-1, 1) translate(-11.674830, -8.975614) translate(0.674830, 0.475614)">
                        <path d="M0,8.88118092 L6.02830348,11.6971651 L18.4959311,2.7076771 L8.22041383,11.9137793 L16.4408277,14.0799209 L21.9211035,0 L0,8.88118092 Z M8.22041383,16.6792909 L10.9605518,14.0799209 L8.22041383,12.9968501 L8.22041383,16.6792909 Z" id="形状"></path>
                    </g>
                </g>
                <path d="M33.5111722,22.1813914 C19.1608939,23.5882513 29.6197169,41.2095615 24.0256932,50.7942726 C20.2089204,57.3338705 7.09608746,55.8607296 3.79133324,56.1260249" id="路径-79" stroke="#13161A" transform="translate(18.651253, 39.153708) rotate(-13.000000) translate(-18.651253, -39.153708) "></path>
            </g>
            <g id="分组-12" transform="translate(72.000000, 45.000000)">
                <g id="分组-11" transform="translate(201.445969, 197.337367) scale(-1, 1) rotate(29.000000) translate(-201.445969, -197.337367) translate(183.445969, 162.337367)">
                    <polygon id="路径-9-copy-10" fill="#FFC1C7" points="21.4899944 4.67735837 13.5924332 56.2988988 31.7703194 62.0107527 35.6801372 0"></polygon>
                    <path d="M0,64.5591398 C10.7606763,66.2580645 21.5213526,67.9569892 32.2820289,69.655914" id="路径-17-copy-7" stroke="#13161A"></path>
                    <path d="M13.3749996,55.2150538 C18.2531356,56.1854484 25.1218301,57.291665 33.9810831,58.5337036 L32.3809884,68.8064516 L0,63.5914304 C3.26683399,58.5401537 7.72516717,55.7480281 13.3749996,55.2150538 Z" id="矩形-copy-9" fill="#0092FF"></path>
                    <path d="M13.5924332,54.3655914 C20.3886499,55.4982079 27.1848665,56.6308244 33.9810831,57.7634409" id="路径-16-copy-7" stroke="#13161A"></path>
                </g>
                <g id="分组-11-copy" transform="translate(250.697222, 154.923644) scale(-1, 1) rotate(84.000000) translate(-250.697222, -154.923644) translate(232.697222, 119.923644)">
                    <polygon id="路径-9-copy-10" fill="#FFC1C7" points="21.4899944 4.67735837 13.5924332 56.2988988 31.7703194 62.0107527 35.6801372 0"></polygon>
                    <path d="M0,64.5591398 C10.7606763,66.2580645 21.5213526,67.9569892 32.2820289,69.655914" id="路径-17-copy-7" stroke="#13161A"></path>
                    <path d="M13.3749996,55.2150538 C18.2531356,56.1854484 25.1218301,57.291665 33.9810831,58.5337036 L32.3809884,68.8064516 L0,63.5914304 C3.26683399,58.5401537 7.72516717,55.7480281 13.3749996,55.2150538 Z" id="矩形-copy-9" fill="#0092FF"></path>
                    <path d="M13.5924332,54.3655914 C20.3886499,55.4982079 27.1848665,56.6308244 33.9810831,57.7634409" id="路径-16-copy-7" stroke="#13161A"></path>
                </g>
                <polygon id="路径-118" fill="#0092FF" points="126.536257 169.043011 239.523359 171.591398 250.567211 138.602968 133.255362 141.010753"></polygon>
                <g id="椭圆形" transform="translate(78.962741, 141.010753)">
                    <mask id="mask-4" fill="white">
                        <use xlink:href="#path-3"></use>
                    </mask>
                    <use id="Mask" fill="#0092FF" xlink:href="#path-3"></use>
                    <ellipse fill="#FFC82C" mask="url(#mask-4)" cx="87.9260525" cy="2.12365591" rx="8.92003431" ry="8.91935484"></ellipse>
                </g>
                <g id="分组-7" transform="translate(100.794640, 82.000000) scale(-1, 1) translate(-100.794640, -82.000000) translate(0.294640, 0.000000)">
                    <path d="M15.2914874,54.0084381 C5.552722,48.1683649 0.465647592,47.7253143 0.0302641793,52.6792863 C-0.405119234,57.6332582 3.85709829,62.1595177 12.8169168,66.2580645 L15.2914874,54.0084381 Z" id="路径-12-copy-7" fill="#FFC1C7"></path>
                    <path d="M11.3074193,50.1182796 C11.4148834,55.781362 11.5223476,61.4444444 11.6298118,67.1075269" id="路径-20-copy-5" stroke="#13161A"></path>
                    <path d="M85.4030899,68.6780476 C83.12033,70.304478 81.3600821,73.3037594 80.122346,77.6758921 C78.88461,82.0480247 74.0903072,104.009107 65.7394377,143.55914 L123.811792,143.55914 C123.811792,103.625956 121.936982,80.5488953 118.187362,74.327957 C114.437742,68.1070187 107.009781,64.9859845 95.9034805,64.9648544 L85.4030899,68.6780476 Z" id="路径-4-copy" fill="#FFC82C"></path>
                    <polygon id="路径-37" fill="#FFC82C" points="82.9048402 86.8045871 86.6517619 69.3734935 48.8180637 77.3823744 11.8933791 50.1182796 11.8933791 94.9803813 52.9057132 98.5376344"></polygon>
                    <g id="分组-9" transform="translate(87.830807, 109.978150) rotate(15.000000) translate(-87.830807, -109.978150) translate(52.830807, 63.478150)">
                        <g id="分组-10" transform="translate(15.781921, 77.292890) rotate(12.000000) translate(-15.781921, -77.292890) translate(2.281921, 66.292890)">
                            <path d="M25.0100225,4.99327124 C7.19894499,5.23757941 -0.425592386,7.65928692 2.13641037,12.2583938 C4.69841312,16.8575006 11.5465731,18.0076478 22.6808904,15.7088354 L25.0100225,4.99327124 Z" id="路径-12-copy-5" fill="#FFC1C7" transform="translate(13.331579, 10.925633) rotate(-25.000000) translate(-13.331579, -10.925633) "></path>
                            <path d="M16.0556879,0.519307686 C17.1883907,6.18239012 18.3210935,11.8454726 19.4537962,17.508555" id="路径-20-copy-4" stroke="#13161A"></path>
                        </g>
                        <path d="M47.1414978,-1.10787513e-11 C54.8329645,5.69791447 60.155022,12.7644737 63.1076703,21.1996778 C66.0603187,29.6348819 67.5311938,45.5799234 67.5202958,69.0348023 L21.5559888,92.7825291 L21.2381769,57.3030335 L50.5844845,54.5232894 C45.2112719,29.0927165 42.5855108,13.6607995 42.7072012,8.22753868 C42.8288915,2.79427782 44.3069904,0.0517649257 47.1414978,-1.10787513e-11 Z" id="路径-38" fill="#FFC82C"></path>
                        <polyline id="路径-47" stroke="#13161A" transform="translate(36.573898, 49.819073) rotate(24.000000) translate(-36.573898, -49.819073) " points="28.532357 28.7923859 45.0826995 55.4431859 28.065097 70.8457609"></polyline>
                        <path d="M69.5146835,64.9827358 L54.0414907,76.1638747" id="路径-2" stroke="#13161A"></path>
                    </g>
                    <g id="分组-6" transform="translate(81.554599, 0.000000)">
                        <path d="M25.4863156,65.552496 C25.4945754,65.6724676 25.498774,65.7935639 25.498774,65.915647 C25.498774,68.7757365 23.1944107,71.0942971 20.3518346,71.0942971 C17.5092584,71.0942971 15.2048951,68.7757365 15.2048951,65.915647 C15.2048951,65.7935639 15.2090937,65.6724676 15.2173535,65.552496 C15.2091221,65.4788017 15.2048951,65.4038976 15.2048951,65.3280061 L15.2048951,58.9707059 C15.2048951,57.8661364 16.1003256,56.9707059 17.2048951,56.9707059 L23.498774,56.9707059 C24.6033435,56.9707059 25.498774,57.8661364 25.498774,58.9707059 L25.498774,65.3280061 C25.498774,65.4038976 25.494547,65.4788017 25.4863156,65.552496 Z" id="合并形状-copy-6" fill="#FFC1C7" transform="translate(20.351835, 64.032502) rotate(10.000000) translate(-20.351835, -64.032502) "></path>
                        <path d="M15.1182828,69.0337163 C20.5337597,71.2451416 24.3050088,73.3137488 25.5847863,66.4862783" id="路径-11-copy-3" stroke="#13161A"></path>
                        <g id="分组-5-copy-3" transform="translate(23.211339, 44.123530) rotate(10.000000) translate(-23.211339, -44.123530) translate(3.711339, 24.623530)" fill-rule="nonzero">
                            <ellipse id="椭圆形" fill="#2F2E41" cx="19.785771" cy="18.8418122" rx="18.7264373" ry="18.8418122"></ellipse>
                            <ellipse id="椭圆形" fill="#FFC1C7" cx="16.8538871" cy="21.2607125" rx="16.8538871" ry="16.9577251"></ellipse>
                            <path d="M29.5836866,31.2383632 C22.5146459,38.3509567 11.1394878,38.6224394 3.74322868,31.8550787 C8.38700572,36.9931387 15.4634,39.1443838 22.1579383,37.4532058 C27.1056364,36.2033155 31.2518356,33.0044133 33.7572698,28.7009363 C34.6418414,27.1815455 35.321888,25.524467 35.7604736,23.7668643 C37.441296,17.0310805 35.3032237,9.91108806 30.1966258,5.2387004 C36.9225476,12.6805284 36.6527273,24.1257696 29.5836866,31.2383632 Z" id="路径" fill="#000000" opacity="0.1"></path>
                        </g>
                        <g id="分组-4-copy-4" transform="translate(25.164393, 40.363521) rotate(10.000000) translate(-25.164393, -40.363521) translate(10.664393, 24.863521)" fill="#2F2E41" fill-rule="nonzero">
                            <path d="M9.61430492,24.8815698 C9.87815029,24.5078299 10.1327827,24.0857035 10.3650088,23.627126 C11.3823941,21.6180929 11.5844675,19.6702236 10.8163523,19.2764381 C10.0482371,18.8826526 8.60080299,20.1920694 7.58341768,22.2011025 C7.56774804,22.2320454 7.5522718,22.2629738 7.53698953,22.2938822 C2.29565598,19.588106 -0.61764899,13.027158 0.110569813,8.00812112 C0.862636699,2.82471823 9.23109512,1.71041487 13.1013004,0.389104351 C16.9715057,-0.932206165 18.4890849,4.06208075 24.0567423,6.5910092 C29.6243997,9.11993764 28.8556811,20.341578 27.886868,24.2453288 C26.9180549,28.1490796 25.1936231,30.3303655 22.5097282,30.5410638 C20.2313454,30.7199276 13.2189454,28.8713378 9.61430492,24.8815698 Z" id="合并形状"></path>
                        </g>
                        <path d="" id="路径-24-copy-3" stroke="#979797"></path>
                        <path d="M39.1571117,20.1872637 C51.3562415,10.4193965 63.5342744,7.96012865 75.6912103,12.8094602 C93.9266143,20.0834575 104.692721,27.809825 110.219051,41.9137246 C115.745381,56.0176243 104.228264,73.144704 88.2945884,65.4792352 C72.3609125,57.8137664 80.4947614,40.1503053 66.126297,36.4137052 C56.5473207,33.9226385 48.4925196,29.3025246 41.9618937,22.5533635 L39.1571117,20.1872637 Z" id="路径-25-copy-3" fill="#2D2C3E" transform="translate(75.389715, 38.886051) rotate(-19.000000) translate(-75.389715, -38.886051) "></path>
                    </g>
                </g>
                <path d="M188.126971,166.494624 L177.507882,149.505376" id="路径-119" stroke="#13161A"></path>
            </g>
            <path d="M20,283.076408 L201,283.923592" id="路径-120" stroke="#13161A"></path>
            <path d="M212,283.076408 L279.580821,283.076408" id="路径-120-copy" stroke="#13161A"></path>
            <path d="M284,283.076408 L300.370871,283.076408" id="路径-120-copy-2" stroke="#13161A"></path>
            <path d="M313,283.076408 L500.71168,283.076408" id="路径-120-copy-3" stroke="#13161A"></path>
        </g>
    </g>
</svg>